# xmcd
#
# Track frame offsets: 
#        150
#        18065
#        30662
#        43287
#        60555
#        74647
#        91302
#        108377
#        123222
#        142002
#        160780
#        178557
#        196862
#        214577
#        234275
#        245777
#        260842
#        278527
#        293682
#        314542
#
# Disc length: 4355 seconds
#
# Revision: 4
# Processed by: cddbd v1.5.2PL0 Copyright (c) Steve Scherf et al.
# Submitted via: ExactAudioCopy v1.0b6
#
DISCID=21110114
DTITLE=The Carpenters - Gold (35th Anniversary Edition) [CD 2)
DYEAR=2004
DGENRE=Pop
TTITLE0=Yesterday Once More
TTITLE1=Please Mr. Postman
TTITLE2=Hurting Each Other
TTITLE3=I Need To Be In Love
TTITLE4=Merry Christmas, Darling
TTITLE5=(They Long To Be) Close To You
TTITLE6=All You Get From Love Is A Love Song
TTITLE7=Sing
TTITLE8=Make Believe It's Your First Time
TTITLE9=Ticket To Ride
TTITLE10=Goodbye To Love
TTITLE11=I Just Fall In Love Again
TTITLE12=I Believe You
TTITLE13=Tryin' To Get The Feeling Again
TTITLE14=For All We Know
TTITLE15=Touch Me When We're Dancing
TTITLE16=I Won't Last A Day Without You
TTITLE17=Mr. Guder
TTITLE18=A Song For You
TTITLE19=Karen's Theme
EXTD=YEAR: 2004
EXTT0=
EXTT1=
EXTT2=
EXTT3=
EXTT4=
EXTT5=
EXTT6=
EXTT7=
EXTT8=
EXTT9=
EXTT10=
EXTT11=
EXTT12=
EXTT13=
EXTT14=
EXTT15=
EXTT16=
EXTT17=
EXTT18=
EXTT19=
PLAYORDER=
